<?xml version="1.0" encoding="utf-8"?>
<!-- Generator: Adobe Illustrator 26.0.0, SVG Export Plug-In . SVG Version: 6.00 Build 0)  -->
<svg version="1.1" id="Layer_1" xmlns="http://www.w3.org/2000/svg" xmlns:xlink="http://www.w3.org/1999/xlink" x="0px" y="0px"
	 viewBox="0 0 205 160" style="enable-background:new 0 0 205 160;" xml:space="preserve">
<style type="text/css">
	.st0{fill:#3D4785;}
	.st1{fill:#FFFFFF;}
</style>
<circle class="st0" cx="102.5" cy="80" r="63.8"/>
<path class="st1" d="M69.4,60.1C59.2,61.6,54.5,75,62.7,82c6.3,5.4,15.3,2.8,21.4,9.7c7.3,8.1,4.7,26.8,20.2,24.7
	c12.6-1.7,9.7-15.8,15.8-23.7c6.1-7.8,15.4-5,22.1-10.5c6-4.9,5.5-16.1-1.1-20.3c-5.6-3.6-14-2.1-17.4,3.8c-2.3,4-1.7,8.7-3.5,12.9
	c-2.8,6.9-11.3,13.4-19,12.4c-7.1-0.9-13.5-5.8-16.2-12.4C81.8,70.5,82.2,58.3,69.4,60.1z"/>
<circle class="st1" cx="102.5" cy="60" r="12.8"/>
</svg>
