<svg width="24" height="23" viewBox="0 0 24 23" fill="none" xmlns="http://www.w3.org/2000/svg">
<path d="M22.0851 10.8216L12.6295 19.7394C11.4712 20.8319 9.90006 21.4456 8.26187 21.4456C6.62368 21.4456 5.05259 20.8319 3.89421 19.7394C2.73584 18.6469 2.08507 17.1651 2.08507 15.6201C2.08507 14.0751 2.73584 12.5934 3.89421 11.5009L13.3498 2.58312C14.122 1.85479 15.1694 1.44562 16.2615 1.44562C17.3536 1.44562 18.401 1.85479 19.1733 2.58312C19.9455 3.31144 20.3794 4.29927 20.3794 5.32928C20.3794 6.35929 19.9455 7.34712 19.1733 8.07545L9.70746 16.9932C9.32134 17.3574 8.79764 17.562 8.25158 17.562C7.70552 17.562 7.18182 17.3574 6.79569 16.9932C6.40957 16.629 6.19265 16.1351 6.19265 15.6201C6.19265 15.1051 6.40957 14.6112 6.79569 14.247L15.531 6.01825" stroke="#354F52" stroke-width="3" stroke-linecap="round" stroke-linejoin="round"/>
</svg>
