<?xml version="1.0" encoding="utf-8"?>
<!-- Generator: Adobe Illustrator 26.0.0, SVG Export Plug-In . SVG Version: 6.00 Build 0)  -->
<svg version="1.1" id="Layer_1" xmlns="http://www.w3.org/2000/svg" xmlns:xlink="http://www.w3.org/1999/xlink" x="0px" y="0px"
	 viewBox="0 0 160 160" style="enable-background:new 0 0 160 160;" xml:space="preserve">
<style type="text/css">
	.st0{fill:#23333C;}
</style>
<path class="st0" d="M80,0C35.8,0,0,35.8,0,80s35.8,80,80,80s80-35.8,80-80S124.2,0,80,0z M80,38.9c8.9,0,16.1,7.2,16.1,16.1
	C96.1,63.8,88.9,71,80,71c-8.9,0-16.1-7.2-16.1-16.1C63.9,46.1,71.1,38.9,80,38.9z M129.8,82.8c-8.4,6.9-20.1,3.4-27.7,13.2
	c-7.6,9.9-4,27.6-19.8,29.7c-19.4,2.6-16.2-20.8-25.3-31C49.3,86,38,89.3,30.1,82.5c-7.7-6.6-6.3-17.7,0.2-23.6c2.2-2,5-3.4,8.2-3.8
	c16.1-2.3,15.5,13,19.6,23.2c3.4,8.3,11.4,14.4,20.3,15.5c9.7,1.3,20.3-6.9,23.8-15.5c2.3-5.3,1.5-11.2,4.4-16.2
	c4.3-7.4,14.8-9.3,21.8-4.8C136.7,62.6,137.3,76.6,129.8,82.8z"/>
</svg>
